# xmcd
#
# Track frame offsets:
#	182
#	11707
#	23737
#	36452
#	45457
#	57045
#	70640
#	80165
#	89972
#	99920
#	112037
#	124095
#	140272
#	153150
#	163682
#
# Disc length: 2378 seconds
#
# Revision: 11
# Processed by: cddbd v1.5.1PL0 Copyright (c) Steve Scherf et al.
# Submitted via: audiograbber 1.81.03
#
DISCID=c309480f
DTITLE=Various Artist - The Best Of Country CD2 Country Ballads
DYEAR=2001
DGENRE=Country
TTITLE0=Wanda Jackson  - Why I'm Walking
TTITLE1=Eddy Arnold  - Make The World Go away
TTITLE2=Bobby Bare  - Detroit City
TTITLE3=The Browns  - Halfway To Heaven
TTITLE4=Patsy Cline  - I've Loved And Lost Again
TTITLE5=Skeeter Davis  - I Forgot More Than You'll Ever Know
TTITLE6=Bobby Helms  - A Fool Such As I (Now And Then There's)
TTITLE7=Hank Locklin  - Please Help Me I'm Falling
TTITLE8=Brenda Lee  - I'm Sorry (live)
TTITLE9=Charly Rich  - The Most Beautiful Girl
TTITLE10=Tammy Wynette  - Stand By Your Man
TTITLE11=Billy Joe Spears  - Blanket On The Ground
TTITLE12=Lynn Anderson  - Rose Garden
TTITLE13=Don Gibson  - Oh! Lonesome Me
TTITLE14=Jeannie J. Riley  - Harper Valley Pta
EXTD=\nYEAR: 2001  ID3G:   2
EXTT0=
EXTT1=
EXTT2=
EXTT3=
EXTT4=
EXTT5=
EXTT6=
EXTT7=
EXTT8=
EXTT9=
EXTT10=
EXTT11=
EXTT12=
EXTT13=
EXTT14=
PLAYORDER=
